<svg id="Laag_1" data-name="Laag 1" xmlns="http://www.w3.org/2000/svg" viewBox="0 0 100 100"><title>shopping-cart</title><circle cx="31.13" cy="85.25" r="5.75" style="fill:#fff"/><circle cx="71.88" cy="85.25" r="5.75" style="fill:#fff"/><path d="M93,9H84a4,4,0,0,0-2.83,1.17L75.84,15.5H6.5A4,4,0,0,0,3,21.5l19,33,.11.15a1.3,1.3,0,0,0,.1.15,3.69,3.69,0,0,0,.43.53h0a3.69,3.69,0,0,0,.53.43l.15.1a4.68,4.68,0,0,0,.54.3l.07,0a3.5,3.5,0,0,0,.65.2l.18,0a4.17,4.17,0,0,0,.71.07H66.79l4.8,12H25.5a4,4,0,0,0,0,8h52A4,4,0,0,0,81.21,71L73.69,52.2l7.43-30.67L85.66,17H93a4,4,0,0,0,0-8ZM69.94,33.69H55.75V23.5H72.41ZM37,33.69V23.5H52.75V33.69Zm15.75,3V48.5H37V36.69ZM34,23.5V33.69H19.28L13.42,23.5ZM21,36.69H34V48.5H27.81ZM55.75,48.5V36.69H69.22L66.35,48.5Z" style="fill:#fff"/></svg>