<svg id="Laag_1" data-name="Laag 1" xmlns="http://www.w3.org/2000/svg" xmlns:xlink="http://www.w3.org/1999/xlink" viewBox="0 0 317 311"><defs><clipPath id="clip-path"><rect x="194" y="134" width="87" height="141" style="fill:none"/></clipPath></defs><title>drag-instruction</title><circle cx="218.13" cy="108.25" r="5.75" style="fill:#fff"/><circle cx="258.88" cy="108.25" r="5.75" style="fill:#fff"/><path d="M280,32h-9a4,4,0,0,0-2.83,1.17l-5.33,5.33H193.5a4,4,0,0,0-3.47,6l19,33,.11.15a1.3,1.3,0,0,0,.1.15,3.69,3.69,0,0,0,.43.53h0a3.69,3.69,0,0,0,.53.43l.15.1a4.68,4.68,0,0,0,.54.3l.07,0a3.5,3.5,0,0,0,.65.2l.18,0a4.17,4.17,0,0,0,.71.07h41.29l4.8,12H212.5a4,4,0,0,0,0,8h52A4,4,0,0,0,268.21,94L260.69,75.2l7.43-30.67L272.66,40H280a4,4,0,0,0,0-8ZM256.94,56.69H242.75V46.5h16.66Zm-32.94,0V46.5h15.75V56.69Zm15.75,3V71.5H224V59.69ZM221,46.5V56.69H206.28L200.42,46.5ZM208,59.69h13V71.5h-6.19ZM242.75,71.5V59.69h13.47L253.35,71.5Z" style="fill:#fff"/><g style="clip-path:url(#clip-path)"><line x1="167" y1="183.59" x2="310.5" y2="50.09" style="fill:none;stroke:#fff;stroke-linecap:round;stroke-linejoin:round;stroke-width:8px"/><line x1="167" y1="235.59" x2="310.5" y2="102.09" style="fill:none;stroke:#fff;stroke-linecap:round;stroke-linejoin:round;stroke-width:8px"/><line x1="167" y1="287.59" x2="310.5" y2="154.09" style="fill:none;stroke:#fff;stroke-linecap:round;stroke-linejoin:round;stroke-width:8px"/><line x1="167" y1="339.59" x2="310.5" y2="206.09" style="fill:none;stroke:#fff;stroke-linecap:round;stroke-linejoin:round;stroke-width:8px"/><line x1="167" y1="391.59" x2="310.5" y2="258.09" style="fill:none;stroke:#fff;stroke-linecap:round;stroke-linejoin:round;stroke-width:8px"/><line x1="167" y1="443.59" x2="310.5" y2="310.09" style="fill:none;stroke:#fff;stroke-linecap:round;stroke-linejoin:round;stroke-width:8px"/></g><rect x="193" y="134" width="87" height="141" style="fill:none;stroke:#fff;stroke-linecap:round;stroke-linejoin:round;stroke-width:8px"/><path d="M27,205H146" style="fill:none;stroke:#fff;stroke-linecap:round;stroke-linejoin:round;stroke-width:8px"/><polyline points="113 242 150 205 113 168" style="fill:none;stroke:#fff;stroke-linecap:round;stroke-linejoin:round;stroke-width:8px"/></svg>